<svg xmlns="http://www.w3.org/2000/svg"  viewBox="0 0 128 128" width="32px" height="32px"><path fill="#76ecff" d="M104.1,73c0.6-2.8,0.9-5.6,0.9-8.6c0-22.1-18.1-40-40.5-40c-2.4,0-4.7,0.2-6.9,0.6c-3.6-2.3-7.9-3.6-12.5-3.6c-13,0-23.5,10.4-23.5,23.2c0,4.3,1.2,8.3,3.2,11.7c-0.5,2.6-0.8,5.3-0.8,8c0,22.1,18.1,39.3,40.5,39.3c2.5,0,5-0.2,7.4-0.7c3.3,1.8,7.1,3.4,11.1,3.4c13,0,23.5-10.4,23.5-23.2C106.5,79.6,105.6,76.1,104.1,73z"/><path fill="#fff" d="M21.5,44.8c0,0.3,0,0.6,0,0.9c12.1-10.5,28.3-18.8,74.3-6.5c-7.4-9-18.7-14.7-31.4-14.7c0,0,0,0,0,0c-2,1.3-4.7,0.2-6.9,0.6c-0.5-0.3-0.9-0.5-1.4-0.8c-1.4-0.8-2.9-1.4-4.5-1.8c-1-0.3-2.1-0.5-3.2-0.7c-1.1-0.2-2.2-0.2-3.4-0.2c-2.8,0-5.6,0.5-8.1,1.4c-0.7,0.3-1.4,0.6-2.1,0.9c-5.1,2.4-9.2,6.7-11.5,11.9c-1.2,2.8-1.8,5.8-1.8,9C21.5,44.7,21.5,44.8,21.5,44.8z"/><path fill="#444b54" d="M83,109.5c-4.4,0-8.3-1.6-11.6-3.3c-2.3,0.4-4.6,0.5-6.9,0.5c-23.1,0-42.2-17.5-43.5-39.9c-0.1-1.7,1.2-3.1,2.8-3.2c1.6-0.1,3.1,1.2,3.2,2.8c1.1,19.2,17.6,34.2,37.5,34.2c2.3,0,4.6-0.2,6.9-0.6c0.7-0.1,1.3,0,1.9,0.3c2.9,1.5,6.3,3.1,9.7,3.1c11.3,0,20.5-9.1,20.5-20.2c0-3.1-0.7-6.2-2.1-8.9c-0.3-0.6-0.4-1.3-0.3-2c0.6-2.6,0.9-5.3,0.9-7.9c0-20.4-16.8-37-37.5-37c-2.1,0-4.3,0.2-6.4,0.5c-0.7,0.1-1.5,0-2.1-0.4c-3.3-2-7-3.1-10.9-3.1c-11.3,0-20.5,9.1-20.5,20.2c0,1.7-1.3,3-3,3s-3-1.3-3-3c0-14.4,11.9-26.2,26.5-26.2c4.6,0,9.1,1.2,13.1,3.4c2.1-0.3,4.2-0.5,6.3-0.5c24,0,43.5,19.3,43.5,43c0,2.7-0.3,5.5-0.8,8.2c1.5,3.4,2.3,6.9,2.3,10.7C109.5,97.8,97.6,109.5,83,109.5z"/><path fill="#444b54" d="M24.7,59.6c-0.2,0-0.4,0-0.5,0c-1.1-0.2-2.8-1.4-2.3-3.7c0.4-2,2.1-2.8,3.5-2.6c1.1,0.2,2.8,1.3,2.4,3.6c0,0,0,0.1,0,0.1C27.3,58.9,25.8,59.6,24.7,59.6z"/><path fill="#fff" d="M82.9,80.8c-1.6,2.2-3.9,4-6.9,5.2c-3,1.3-6.6,1.9-10.7,1.9c-5,0-9-0.9-12.3-2.6c-2.3-1.2-4.1-2.9-5.6-5c-1.4-2.1-2.1-4.1-2.1-6c0-1.1,0.4-2.1,1.3-2.9c0.9-0.8,1.9-1.2,3.3-1.2c1.1,0,2,0.3,2.7,0.9c0.7,0.6,1.4,1.6,1.9,2.8c0.6,1.5,1.3,2.7,2.1,3.7c0.7,1,1.8,1.8,3.1,2.4c1.3,0.6,3.1,1,5.3,1c3,0,5.5-0.6,7.3-1.9c1.9-1.3,2.8-2.9,2.8-4.8c0-1.5-0.5-2.8-1.5-3.7c-1-1-2.3-1.7-3.9-2.2c-1.6-0.5-3.8-1-6.5-1.6c-3.6-0.8-6.6-1.7-9.1-2.7c-2.4-1-4.4-2.5-5.8-4.3c-1.4-1.8-2.1-4-2.1-6.7c0-2.5,0.8-4.8,2.3-6.8c1.5-2,3.7-3.5,6.5-4.6c2.9-1.1,6.2-1.6,10.1-1.6c3.1,0,5.7,0.4,8,1.1c2.2,0.7,4.1,1.6,5.6,2.8c1.5,1.2,2.6,2.4,3.3,3.7c0.7,1.3,1,2.5,1,3.7c0,1.1-0.4,2.1-1.3,3c-0.9,0.9-1.9,1.3-3.2,1.3c-1.2,0-2.1-0.3-2.7-0.8c-0.6-0.5-1.3-1.4-2-2.6c-0.9-1.7-2-3.1-3.3-4.1c-1.3-1-3.3-1.5-6.2-1.5c-2.6,0-4.7,0.5-6.4,1.6c-1.6,1.1-2.4,2.3-2.4,3.8c0,0.9,0.3,1.7,0.8,2.4c0.5,0.7,1.3,1.2,2.3,1.7c1,0.5,1.9,0.9,2.9,1.1c1,0.3,2.6,0.7,4.9,1.2c2.8,0.6,5.4,1.3,7.7,2c2.3,0.7,4.2,1.6,5.9,2.7c1.6,1.1,2.9,2.4,3.8,4c0.9,1.6,1.4,3.6,1.4,5.9C85.3,76,84.5,78.5,82.9,80.8z"/><g><path fill="#fff" d="M64.2,85.3c-1.9,0-4-0.4-6.1-1.3c-5.7-2.5-8-7.5-8.8-9.5l0.9-0.3c0.7,1.9,2.9,6.6,8.2,8.9c6.6,2.9,12.8-0.2,15.1-1.6c1.6-1,3.7-2.3,4.8-4.9c1.1-2.8,0.6-6.1-1.1-8.2c-0.8-0.9-1.7-1.6-5-2.7c-3.5-1.2-6-1.7-8.3-2.1c-2.8-0.5-5.3-1-8.3-2.7c-2.3-1.3-3.8-2.6-4.5-4c-2-4,0.6-8.5,0.7-8.7c3.2-5.4,10.4-5.7,11.8-5.7c0,0,0,0,0.1,0c9.2,0,14.6,8.5,15.2,9.4l-0.9,0.5c-0.6-0.9-5.7-9-14.4-9c0,0,0,0-0.1,0c-1.3,0-8,0.3-10.9,5.2c-0.1,0.2-2.4,4.2-0.7,7.8c0.6,1.2,1.9,2.4,4,3.6c2.9,1.6,5.1,2,8,2.6c2.3,0.4,4.9,0.9,8.4,2.1c3.5,1.2,4.5,1.9,5.4,3c2,2.4,2.5,6.1,1.3,9.2c-1.2,3-3.6,4.5-5.2,5.4C72.4,83.4,68.7,85.3,64.2,85.3z"/></g></svg>